<svg version="1.2" xmlns="http://www.w3.org/2000/svg" viewBox="0 0 2000 2000" width="2000" height="2000">
	<title>g162</title>
	<style>
		.s0 { fill: #dd9bf2 } 
		.s1 { fill: #c247d5 } 
	</style>
	<path id="Fill" class="s0" d="m566.7-17.3c400.2 445.1 1090 82 1025.4 700.8-26 249-200.3 567.5-650.3 600.4 272.8 373.1 265.8 506.2-107.9 519.5-350.9 12.4-690.9 67.5-1027.3 128l5.6-2235.1z"/>
	<path id="Outline" class="s1" d="m-123.9 2002c83.5-14.8 167.4-29.1 249.7-42.1 315.4-50.1 533.7-68.4 711-74.8 37.6-1.3 85.9-4.5 132.9-12.3 35.8-6 73.3-15 107.4-29.5 30.8-13.1 60.7-31.3 84.8-58 11.6-12.9 21.5-27.4 29.2-43.5 7.5-15.9 12.6-32.6 15.4-49.7 5.6-34.2 2-68.3-6.4-101.4-8.7-34.3-23.2-69.2-40.3-103.3-24.1-48.1-56.1-99.4-87.9-146.5 59.6-11.7 124.7-30.6 190.3-61.2 88.5-41.4 162.3-96.9 222.2-162.1 68.4-74.4 109.4-151.4 133.5-208.6 7-16.5 12.5-31.4 16.8-43.9 14.5-41.9 31-101.6 38.5-173.1 8.3-80.4 6-154.1-11.5-219.3-8.4-31.4-20.2-60.3-35.5-86.7-15.3-26.4-33.5-49.3-54.2-69.4-20.9-20.2-43.6-36.9-67.2-50.8-24.3-14.3-49.5-25.8-74.5-35.2-54-20.4-112.7-33.4-160.9-42.9-53.2-10.5-100.2-18.3-135.7-24.8-85.3-15.6-140.2-25-206.6-40.6-69.6-16.3-124.5-33.5-172.5-51.7-127.3-48.3-187.9-87.9-187.9-87.9 0 0 12.5 76.5 135.3 177.2 45.5 37.3 104.2 73.5 180.5 103.7 67 26.5 139 45.2 222 60.4 36.7 6.7 84.1 14.5 133.5 24.3 46.6 9.1 94.2 20.1 134.8 35.5 18.3 6.9 34.8 14.5 49.4 23.2 14.1 8.3 26.2 17.4 36.6 27.4 10.2 9.9 19 21 26.5 33.9 7.5 13 14 28.4 19 47 10.6 39.4 13.9 91.6 6.8 159.6-5.9 56.3-19 103.5-30.4 136.7-3.4 9.9-7.7 21.7-13 34.8-18.4 45.5-48.8 106.3-100.2 165.4-44.8 51.5-101 96.6-170.5 131-91.8 45.5-186.6 62.3-260.6 67.7-13 0.9-25.6 5.4-36.4 12.9-10.8 7.5-19.3 17.7-24.8 29.7-5.5 11.9-7.7 25.1-6.4 38.2 1.3 13.1 6.1 25.6 13.9 36.2 46.9 64.2 107.4 152.1 142.6 226.3 13.5 28.6 22.4 52.9 26.8 73 4.2 19.1 3.6 31.2 1.9 38.2-0.8 3.4-1.8 5.6-2.9 7.3-1 1.7-2.5 3.5-4.6 5.5-4.6 4.4-13.5 10.6-30.1 17-18.7 7.3-42.9 13.1-72.1 17.5-37.6 5.6-78.5 8-113.3 9.3-184.5 6.5-409.4 25.6-730.7 76.6-79.8 12.6-160.7 26.4-241 40.5z"/>
	<path id="Nostril" class="s1" d="m989.8 592.1c51.9 113 120.4 127.3 206.6 40.9-76.5 190.1-197 166.8-206.6-40.9z"/>
</svg>